<svg width="404" height="200" viewBox="0 0 404 200" fill="none" xmlns="http://www.w3.org/2000/svg">
<path fill-rule="evenodd" clip-rule="evenodd" d="M247.127 3.15839C237.436 -2.46355 225.083 0.865232 219.461 10.5557L150.148 130.614C144.526 140.304 147.855 152.657 157.546 158.279C167.236 163.901 179.589 160.573 185.211 150.882L254.524 30.8242C260.146 21.1338 256.817 8.78032 247.127 3.15839Z" fill="white"/>
<path fill-rule="evenodd" clip-rule="evenodd" d="M176.557 3.15831C166.866 -2.38965 154.513 0.865149 148.891 10.5556L96.2961 101.616L38.2274 9.59394C32.2356 0.125421 19.7342 -2.68555 10.3396 3.30625C0.871122 9.29805 -1.93985 21.7995 3.97798 31.194L79.8741 151.548C83.6467 157.466 89.9344 160.794 96.444 161.016H98.2933C104.803 160.572 111.017 157.022 114.567 150.956L128.622 126.619L183.88 30.8241C189.428 21.1337 186.173 8.78024 176.483 3.15831H176.557Z" fill="white"/>
<path fill-rule="evenodd" clip-rule="evenodd" d="M403.801 139.712C403.801 139.046 403.727 138.381 403.579 137.715V137.641C403.579 137.419 403.579 137.197 403.431 136.975V136.753C403.431 136.531 403.283 136.235 403.283 136.014V135.644C403.283 135.422 403.135 135.2 403.061 134.978C402.913 134.386 402.691 133.794 402.47 133.277C402.47 133.129 402.396 133.055 402.322 132.981C402.322 132.833 402.248 132.759 402.174 132.611C402.174 132.611 402.174 132.463 402.026 132.389C402.026 132.241 401.878 132.093 401.804 131.945C401.656 131.649 401.508 131.279 401.286 130.983C401.212 130.761 401.064 130.54 400.916 130.392C400.916 130.318 400.768 130.17 400.694 130.096L400.324 129.578L324.724 9.74189C318.732 0.27337 306.231 -2.5376 296.836 3.4542C293.508 5.52544 291.067 8.48435 289.439 11.7392L249.568 80.7558L220.644 130.835C215.318 140.082 218.129 151.844 226.858 157.688C226.858 157.688 226.932 157.688 227.006 157.835C227.376 158.057 227.672 158.279 228.042 158.501L228.486 158.723C228.633 158.723 228.707 158.871 228.855 158.945C229.299 159.167 229.743 159.389 230.261 159.611C230.409 159.611 230.557 159.759 230.705 159.833C231.149 159.981 231.666 160.203 232.11 160.351C232.258 160.351 232.48 160.425 232.628 160.498C233.072 160.646 233.59 160.794 234.033 160.868C234.255 160.868 234.403 160.868 234.625 160.942C235.069 161.016 235.513 161.09 236.031 161.164H384.642C385.234 161.164 385.9 161.09 386.491 161.016C386.713 161.016 386.861 161.016 387.083 160.942C387.379 160.942 387.675 160.868 387.971 160.794C388.119 160.794 388.341 160.72 388.563 160.646C388.785 160.646 389.007 160.572 389.154 160.498C389.376 160.498 389.598 160.351 389.82 160.277C390.264 160.129 390.708 159.981 391.152 159.759C391.374 159.685 391.596 159.537 391.817 159.463C392.039 159.389 392.261 159.241 392.483 159.167C392.853 159.019 393.223 158.797 393.593 158.575C393.667 158.575 393.815 158.427 393.889 158.427C394.037 158.353 394.259 158.205 394.407 158.057C394.776 157.835 395.146 157.54 395.516 157.318C395.886 157.096 396.182 156.8 396.478 156.578H396.552C396.848 156.356 397.144 156.06 397.439 155.838C397.439 155.838 397.587 155.69 397.661 155.616C397.883 155.394 398.105 155.172 398.327 154.951C398.327 154.951 398.401 154.877 398.475 154.803C398.771 154.507 398.993 154.211 399.289 153.841C399.511 153.545 399.733 153.249 399.954 152.953L400.028 152.805C400.028 152.805 400.028 152.731 400.102 152.657C400.25 152.435 400.398 152.214 400.546 151.992C400.62 151.844 400.768 151.696 400.842 151.548C401.064 151.252 401.212 150.956 401.36 150.66C401.582 150.29 401.73 149.92 401.952 149.551C402.1 149.181 402.248 148.811 402.396 148.441C402.691 147.627 402.987 146.887 403.135 146.074C403.209 145.63 403.357 145.26 403.431 144.816C403.431 144.372 403.579 144.003 403.653 143.559C403.653 143.189 403.727 142.819 403.727 142.449V141.044V140.008L403.801 139.712ZM273.313 120.553L308.45 59.6735L346.842 120.553H273.313Z" fill="white"/>
<path fill-rule="evenodd" clip-rule="evenodd" d="M402.396 148.145C402.691 147.331 402.987 146.592 403.135 145.778C402.913 146.592 402.691 147.405 402.396 148.145Z" fill="white"/>
<path d="M109.537 176.847H103.989C102.732 176.847 101.992 177.364 101.696 178.474L98.3673 189.866C98.2193 190.384 98.1454 190.975 97.9974 191.493C97.8495 192.011 97.7755 192.603 97.6276 193.121H97.1097C96.9618 192.603 96.8878 192.011 96.7399 191.493C96.5919 190.975 96.518 190.458 96.37 189.866L92.9673 178.474C92.6714 177.438 91.9316 176.847 90.6741 176.847H85.2001C83.7946 176.847 83.0549 177.438 83.0549 178.696L82.0933 199.556H87.4933L88.307 180.767H88.9727L93.1892 194.896C93.4851 195.932 94.2248 196.449 95.5563 196.449H99.181C100.439 196.449 101.252 195.932 101.474 194.896L105.691 180.767H106.356L107.244 199.556H112.644L111.682 178.696C111.682 177.438 110.943 176.847 109.537 176.847Z" fill="white"/>
<path d="M174.633 178.844C173.746 177.956 172.562 177.291 171.157 176.921C169.677 176.551 167.976 176.329 165.831 176.329C163.685 176.329 161.984 176.551 160.504 176.921C159.025 177.291 157.915 177.956 157.028 178.844C156.14 179.732 155.474 180.915 155.104 182.469C154.735 184.022 154.513 185.871 154.513 188.165C154.513 190.458 154.735 192.307 155.104 193.86C155.474 195.414 156.14 196.597 157.028 197.485C157.915 198.373 159.099 199.039 160.504 199.408C161.984 199.778 163.685 200 165.831 200C167.976 200 169.677 199.778 171.157 199.408C172.636 199.039 173.746 198.373 174.633 197.485C175.521 196.597 176.187 195.414 176.557 193.86C176.926 192.307 177.148 190.458 177.148 188.165C177.148 185.871 176.926 184.022 176.557 182.469C176.113 180.915 175.521 179.732 174.633 178.844ZM170.565 192.899C170.269 194.008 169.751 194.822 168.937 195.266C168.198 195.71 167.162 195.932 165.831 195.932C164.499 195.932 163.463 195.71 162.724 195.266C161.984 194.822 161.466 194.008 161.096 192.899C160.8 191.789 160.652 190.162 160.652 188.165C160.652 186.167 160.8 184.54 161.096 183.43C161.392 182.321 161.91 181.507 162.724 181.063C163.463 180.619 164.499 180.397 165.831 180.397C167.162 180.397 168.198 180.619 168.937 181.063C169.677 181.507 170.195 182.321 170.565 183.43C170.861 184.54 171.009 186.167 171.009 188.165C171.009 190.162 170.861 191.789 170.565 192.899Z" fill="white"/>
<path d="M242.17 180.619V176.847H223.307V180.619H235.735L223.012 195.784V199.482H242.466V195.784H229.521L242.17 180.619Z" fill="white"/>
<path d="M302.162 189.718V191.567C302.162 192.159 302.236 192.825 302.31 193.491H301.867C301.571 192.825 301.275 192.233 300.905 191.567C300.609 190.975 300.239 190.384 299.943 189.866L292.916 178.326C292.62 177.808 292.324 177.438 291.954 177.217C291.658 176.995 291.14 176.847 290.549 176.847H287.368C285.962 176.847 285.223 177.438 285.223 178.622V199.482H290.771V186.241C290.771 185.649 290.771 185.058 290.697 184.466C290.697 183.874 290.549 183.282 290.475 182.691H290.919C291.14 183.282 291.362 183.874 291.658 184.466C291.954 185.058 292.25 185.649 292.546 186.167L299.795 198.077C300.091 198.595 300.387 198.965 300.683 199.186C300.979 199.408 301.497 199.556 302.162 199.556H305.343C306.749 199.556 307.414 198.965 307.414 197.781V176.921H301.94V189.792L302.162 189.718Z" fill="white"/>
<path d="M385.9 177.66C385.53 177.438 385.086 177.291 384.642 177.291H379.094C378.576 177.291 378.206 177.438 377.837 177.66C377.467 177.882 377.245 178.252 377.097 178.622L369.404 200H375.395L377.319 194.008H386.343L388.267 200H394.185L386.565 178.622C386.417 178.252 386.196 177.882 385.826 177.66H385.9ZM378.502 190.236L380.722 183.356C380.869 182.986 380.943 182.617 381.017 182.247C381.091 181.877 381.165 181.507 381.239 181.137H382.275C382.349 181.507 382.423 181.877 382.571 182.247C382.645 182.617 382.793 182.986 382.867 183.356L385.086 190.236H378.428H378.502Z" fill="white"/>
<path d="M402.692 177.291H396.922V199.926H402.692V177.291Z" fill="white"/>
<path d="M339.075 194.97H337.595C336.856 194.97 336.338 195.118 336.042 195.34C335.746 195.562 335.598 196.006 335.598 196.671V198.225C335.598 198.891 335.746 199.334 336.042 199.556C336.338 199.778 336.856 199.926 337.595 199.926H339.075C339.815 199.926 340.332 199.778 340.628 199.556C340.924 199.334 341.072 198.891 341.072 198.225V196.671C341.072 196.006 340.924 195.562 340.628 195.34C340.332 195.118 339.815 194.97 339.075 194.97Z" fill="white"/>
</svg>
